<svg width="76" height="76" viewBox="0 0 76 76" fill="none" xmlns="http://www.w3.org/2000/svg">
<circle cx="37.658" cy="37.658" r="36.313" fill="black" fill-opacity="0.14" stroke="white" stroke-width="2.68986"/>
<path fill-rule="evenodd" clip-rule="evenodd" d="M27.9459 18.7136C27.9459 17.2904 29.0996 16.1367 30.5228 16.1367H44.6954C46.1185 16.1367 47.2722 17.2904 47.2722 18.7136V20.3239H56.6132C59.2816 20.3239 61.4447 22.487 61.4447 25.1554V49.6354C61.4447 52.3038 59.2816 54.4669 56.6132 54.4669H18.2827C15.6143 54.4669 13.4512 52.3038 13.4512 49.6354V25.1554C13.4512 22.487 15.6143 20.3239 18.2827 20.3239H27.9459V18.7136ZM45.0162 37.0745C45.0162 41.166 41.6993 44.4829 37.6078 44.4829C33.5162 44.4829 30.1994 41.166 30.1994 37.0745C30.1994 32.9829 33.5162 29.666 37.6078 29.666C41.6993 29.666 45.0162 32.9829 45.0162 37.0745ZM49.2035 37.0745C49.2035 43.4786 44.0119 48.6702 37.6078 48.6702C31.2036 48.6702 26.012 43.4786 26.012 37.0745C26.012 30.6703 31.2036 25.4787 37.6078 25.4787C44.0119 25.4787 49.2035 30.6703 49.2035 37.0745Z" fill="white"/>
</svg>
