<svg width="406" height="66" viewBox="0 0 406 66" fill="none" xmlns="http://www.w3.org/2000/svg">
<path d="M35.8779 50V13.9186H51.6506C55.568 13.9186 59.0044 14.6745 61.9596 16.1865C64.9148 17.6985 67.2172 19.7947 68.8666 22.475C70.5161 25.1553 71.3408 28.3168 71.3408 31.9593C71.3408 35.5674 70.5161 38.7288 68.8666 41.4435C67.2172 44.1239 64.9148 46.22 61.9596 47.732C59.0044 49.244 55.568 50 51.6506 50H35.8779ZM42.5787 44.3301H51.3414C54.0561 44.3301 56.3928 43.8146 58.3515 42.7837C60.3445 41.7528 61.8737 40.3096 62.939 38.4539C64.0386 36.5983 64.5884 34.4334 64.5884 31.9593C64.5884 29.4508 64.0386 27.2859 62.939 25.4646C61.8737 23.609 60.3445 22.1657 58.3515 21.1348C56.3928 20.1039 54.0561 19.5885 51.3414 19.5885H42.5787V44.3301ZM118.809 60.3605C116.266 60.3605 113.775 60.0169 111.335 59.3296C108.929 58.6767 106.953 57.7146 105.407 56.4431L108.294 51.5979C109.496 52.5944 111.008 53.3848 112.83 53.969C114.685 54.5875 116.558 54.8968 118.448 54.8968C121.472 54.8968 123.688 54.1923 125.097 52.7834C126.506 51.4089 127.211 49.3299 127.211 46.5465V41.6497L127.726 35.4128L127.52 29.1759V22.475H133.654V45.8249C133.654 50.8075 132.382 54.4672 129.839 56.8039C127.297 59.175 123.62 60.3605 118.809 60.3605ZM117.984 48.7629C115.372 48.7629 113.001 48.2131 110.871 47.1135C108.775 45.9795 107.108 44.416 105.871 42.4229C104.668 40.4298 104.067 38.0931 104.067 35.4128C104.067 32.7668 104.668 30.4473 105.871 28.4542C107.108 26.4612 108.775 24.9148 110.871 23.8152C113.001 22.7156 115.372 22.1657 117.984 22.1657C120.321 22.1657 122.417 22.6296 124.273 23.5575C126.128 24.4853 127.606 25.9285 128.705 27.8872C129.839 29.8459 130.406 32.3545 130.406 35.4128C130.406 38.4711 129.839 40.9968 128.705 42.9899C127.606 44.9486 126.128 46.409 124.273 47.3712C122.417 48.299 120.321 48.7629 117.984 48.7629ZM118.963 43.2992C120.579 43.2992 122.022 42.9727 123.293 42.3198C124.565 41.6325 125.544 40.7047 126.231 39.5364C126.953 38.3337 127.314 36.9591 127.314 35.4128C127.314 33.8664 126.953 32.5091 126.231 31.3407C125.544 30.138 124.565 29.2274 123.293 28.6089C122.022 27.956 120.579 27.6295 118.963 27.6295C117.348 27.6295 115.888 27.956 114.582 28.6089C113.311 29.2274 112.314 30.138 111.593 31.3407C110.905 32.5091 110.562 33.8664 110.562 35.4128C110.562 36.9591 110.905 38.3337 111.593 39.5364C112.314 40.7047 113.311 41.6325 114.582 42.3198C115.888 42.9727 117.348 43.2992 118.963 43.2992ZM154.598 60.3605C152.055 60.3605 149.564 60.0169 147.124 59.3296C144.719 58.6767 142.743 57.7146 141.197 56.4431L144.083 51.5979C145.286 52.5944 146.798 53.3848 148.619 53.969C150.475 54.5875 152.348 54.8968 154.237 54.8968C157.261 54.8968 159.478 54.1923 160.887 52.7834C162.296 51.4089 163 49.3299 163 46.5465V41.6497L163.516 35.4128L163.309 29.1759V22.475H169.443V45.8249C169.443 50.8075 168.172 54.4672 165.629 56.8039C163.086 59.175 159.409 60.3605 154.598 60.3605ZM153.774 48.7629C151.162 48.7629 148.791 48.2131 146.66 47.1135C144.564 45.9795 142.898 44.416 141.661 42.4229C140.458 40.4298 139.856 38.0931 139.856 35.4128C139.856 32.7668 140.458 30.4473 141.661 28.4542C142.898 26.4612 144.564 24.9148 146.66 23.8152C148.791 22.7156 151.162 22.1657 153.774 22.1657C156.11 22.1657 158.206 22.6296 160.062 23.5575C161.918 24.4853 163.395 25.9285 164.495 27.8872C165.629 29.8459 166.196 32.3545 166.196 35.4128C166.196 38.4711 165.629 40.9968 164.495 42.9899C163.395 44.9486 161.918 46.409 160.062 47.3712C158.206 48.299 156.11 48.7629 153.774 48.7629ZM154.753 43.2992C156.368 43.2992 157.811 42.9727 159.083 42.3198C160.354 41.6325 161.334 40.7047 162.021 39.5364C162.742 38.3337 163.103 36.9591 163.103 35.4128C163.103 33.8664 162.742 32.5091 162.021 31.3407C161.334 30.138 160.354 29.2274 159.083 28.6089C157.811 27.956 156.368 27.6295 154.753 27.6295C153.138 27.6295 151.677 27.956 150.372 28.6089C149.1 29.2274 148.104 30.138 147.382 31.3407C146.695 32.5091 146.351 33.8664 146.351 35.4128C146.351 36.9591 146.695 38.3337 147.382 39.5364C148.104 40.7047 149.1 41.6325 150.372 42.3198C151.677 42.9727 153.138 43.2992 154.753 43.2992ZM180.182 60.3605C178.842 60.3605 177.502 60.1372 176.161 59.6904C174.821 59.2437 173.704 58.6252 172.811 57.8348L175.388 53.0927C176.041 53.6769 176.78 54.1408 177.605 54.4844C178.429 54.828 179.271 54.9999 180.13 54.9999C181.299 54.9999 182.244 54.7078 182.965 54.1236C183.687 53.5394 184.357 52.5601 184.976 51.1855L186.573 47.5774L187.089 46.8042L197.501 22.475H203.686L190.8 52.2164C189.941 54.2782 188.979 55.9105 187.914 57.1132C186.883 58.3159 185.714 59.1578 184.409 59.6389C183.137 60.12 181.728 60.3605 180.182 60.3605ZM185.852 50.9794L173.43 22.475H180.13L190.233 46.2372L185.852 50.9794ZM233.247 50L217.474 13.9186H224.742L238.814 46.5465H234.639L248.865 13.9186H255.566L239.845 50H233.247ZM259.007 50V22.475H265.45V50H259.007ZM262.254 17.9391C261.051 17.9391 260.055 17.5611 259.264 16.8051C258.508 16.0491 258.13 15.1385 258.13 14.0732C258.13 12.9736 258.508 12.0629 259.264 11.3413C260.055 10.5853 261.051 10.2073 262.254 10.2073C263.457 10.2073 264.436 10.5681 265.192 11.2898C265.982 11.977 266.377 12.8533 266.377 13.9186C266.377 15.0525 265.999 16.0147 265.243 16.8051C264.488 17.5611 263.491 17.9391 262.254 17.9391ZM282.411 50.3608C280.109 50.3608 277.892 50.0687 275.762 49.4846C273.666 48.866 271.999 48.1272 270.762 47.2681L273.236 42.3714C274.473 43.1617 275.951 43.8146 277.669 44.3301C279.387 44.8455 281.105 45.1032 282.824 45.1032C284.851 45.1032 286.311 44.8283 287.205 44.2785C288.133 43.7287 288.597 42.9899 288.597 42.0621C288.597 41.3061 288.287 40.7391 287.669 40.3611C287.05 39.9487 286.243 39.6395 285.246 39.4333C284.25 39.2271 283.133 39.0381 281.896 38.8663C280.693 38.6945 279.473 38.4711 278.236 38.1962C277.033 37.8869 275.934 37.4574 274.937 36.9076C273.941 36.3234 273.133 35.5502 272.515 34.5881C271.896 33.6259 271.587 32.3545 271.587 30.7737C271.587 29.0212 272.085 27.5092 273.082 26.2378C274.078 24.932 275.47 23.9355 277.257 23.2482C279.078 22.5266 281.226 22.1657 283.7 22.1657C285.555 22.1657 287.428 22.3719 289.318 22.7843C291.208 23.1966 292.772 23.7808 294.009 24.5368L291.535 29.4336C290.229 28.6432 288.906 28.1106 287.566 27.8357C286.26 27.5264 284.954 27.3718 283.648 27.3718C281.69 27.3718 280.229 27.6639 279.267 28.248C278.339 28.8322 277.875 29.571 277.875 30.4645C277.875 31.2892 278.184 31.9077 278.803 32.3201C279.422 32.7325 280.229 33.0589 281.226 33.2994C282.222 33.54 283.322 33.7462 284.525 33.918C285.762 34.0554 286.981 34.2788 288.184 34.5881C289.387 34.8973 290.487 35.3269 291.483 35.8767C292.514 36.3921 293.339 37.131 293.957 38.0931C294.576 39.0553 294.885 40.3096 294.885 41.8559C294.885 43.5741 294.37 45.0689 293.339 46.3403C292.342 47.6118 290.916 48.6083 289.06 49.3299C287.205 50.0172 284.988 50.3608 282.411 50.3608ZM300.434 50V22.475H306.877V50H300.434ZM303.681 17.9391C302.478 17.9391 301.482 17.5611 300.692 16.8051C299.936 16.0491 299.558 15.1385 299.558 14.0732C299.558 12.9736 299.936 12.0629 300.692 11.3413C301.482 10.5853 302.478 10.2073 303.681 10.2073C304.884 10.2073 305.863 10.5681 306.619 11.2898C307.41 11.977 307.805 12.8533 307.805 13.9186C307.805 15.0525 307.427 16.0147 306.671 16.8051C305.915 17.5611 304.918 17.9391 303.681 17.9391ZM359.442 22.1657C361.641 22.1657 363.6 22.5953 365.318 23.4544C367.071 24.3134 368.445 25.6364 369.442 27.4233C370.438 29.1759 370.937 31.4438 370.937 34.2273V50H364.494V35.052C364.494 32.6122 363.909 30.7909 362.741 29.5882C361.607 28.3855 360.009 27.7841 357.947 27.7841C356.435 27.7841 355.095 28.0934 353.927 28.7119C352.759 29.3305 351.848 30.2583 351.195 31.4954C350.577 32.6981 350.267 34.2273 350.267 36.0829V50H343.824V22.475H349.958V29.8975L348.876 27.6295C349.838 25.877 351.229 24.5368 353.051 23.609C354.906 22.6468 357.037 22.1657 359.442 22.1657Z" fill="white"/>
<path fill-rule="evenodd" clip-rule="evenodd" d="M336.31 38.0516C335.127 44.0718 329.25 48.0198 323.152 46.8214C317.053 45.623 313.108 39.7449 314.291 33.7247C315.474 27.7045 321.35 23.7565 327.449 24.9549C333.547 26.1533 337.493 32.0314 336.31 38.0516ZM332.243 49.0868C329.335 50.6004 325.906 51.1741 322.431 50.4913C314.323 48.8981 309.036 41.0686 310.621 33.0035C312.205 24.9384 320.063 19.6919 328.17 21.285C336.277 22.8782 341.565 30.7077 339.98 38.7728C339.289 42.2895 337.405 45.2703 334.828 47.3819L335.988 49.2953C336.704 49.2855 337.409 49.6004 337.879 50.1956L345.303 59.6119C346.428 61.0398 346.144 63.117 344.677 64.1903C343.139 65.3148 340.965 64.8599 340.007 63.2131L333.978 52.8481C333.654 52.291 333.584 51.6568 333.73 51.0784L332.243 49.0868Z" fill="#8A9649"/>
<path d="M101.268 39.3419C99.884 46.3846 93.0172 50.9818 85.9142 49.586C78.8113 48.1903 74.1947 41.3364 75.5786 34.2938C76.9625 27.2511 83.8293 22.6539 90.9323 24.0497C98.0352 25.4454 102.652 32.2993 101.268 39.3419Z" stroke="#8A9649" stroke-width="3.74008"/>
<ellipse cx="321.465" cy="33.5097" rx="2.06529" ry="2.78814" transform="rotate(-37.8629 321.465 33.5097)" fill="white"/>
<ellipse cx="325.988" cy="31.1428" rx="2.12512" ry="2.88097" transform="rotate(-20.4443 325.988 31.1428)" fill="white"/>
<ellipse cx="330.935" cy="33.6169" rx="1.97424" ry="2.60813" transform="rotate(-23.5266 330.935 33.6169)" fill="white"/>
<ellipse cx="320.76" cy="38.9876" rx="1.88598" ry="2.60013" transform="rotate(-49.7679 320.76 38.9876)" fill="white"/>
<path d="M326.237 35.365C325.843 35.5196 325.415 35.7822 325.16 35.9795C324.967 36.1287 324.438 36.7902 324.343 36.9231C324.271 37.0229 324.253 37.1486 324.219 37.2634C324.151 37.4929 324.158 37.7488 324.159 37.9874C324.159 38.3887 324.247 38.7864 324.28 39.1845C324.312 39.5533 324.339 39.905 324.315 40.2744C324.294 40.6059 324.165 40.9004 324.041 41.2026C323.918 41.5032 323.799 41.8064 323.701 42.1161C323.587 42.475 323.461 42.8612 323.462 43.2424C323.463 43.5281 323.478 43.8701 323.66 44.1074C323.872 44.3841 324.176 44.5 324.495 44.6156C324.888 44.7579 325.347 44.7764 325.758 44.7188C326.215 44.6546 326.701 44.4021 327.073 44.1382C327.449 43.8723 327.742 43.557 327.985 43.167C328.228 42.7775 328.41 42.359 328.736 42.0264C328.989 41.7676 329.391 41.565 329.752 41.5149C330.14 41.4609 330.528 41.5366 330.917 41.5134C331.357 41.4872 331.757 41.3677 332.162 41.2C332.783 40.9423 333.413 40.4165 333.625 39.7618C333.714 39.4858 333.79 39.111 333.685 38.8287C333.599 38.599 333.444 38.4005 333.295 38.209L333.284 38.1954C333.118 37.9814 332.934 37.7973 332.712 37.6416C332.389 37.415 331.959 37.334 331.578 37.2764C331.426 37.2535 331.272 37.2513 331.12 37.2233C330.984 37.1982 330.859 37.1462 330.727 37.1078C330.465 37.0317 330.205 36.9621 329.95 36.8632C329.391 36.6465 329.057 36.1364 328.641 35.7308C328.215 35.3149 327.692 35.0682 327.087 35.1323C326.801 35.1624 326.503 35.2608 326.237 35.365Z" fill="white"/>
<ellipse cx="88.1242" cy="30.9056" rx="2.06529" ry="2.78814" transform="rotate(13.2329 88.1242 30.9056)" fill="white"/>
<ellipse cx="92.8047" cy="32.9369" rx="2.12512" ry="2.88097" transform="rotate(30.6516 92.8047 32.9369)" fill="white"/>
<ellipse cx="93.9844" cy="38.3409" rx="1.97424" ry="2.60813" transform="rotate(27.5692 93.9844 38.3409)" fill="white"/>
<ellipse cx="83.417" cy="33.7935" rx="1.88598" ry="2.60013" transform="rotate(1.32801 83.417 33.7935)" fill="white"/>
<path d="M89.6749 35.7851C89.3068 35.5753 88.8338 35.4073 88.5203 35.3329C88.2831 35.2766 87.436 35.2803 87.2725 35.2892C87.1496 35.2959 87.0407 35.3611 86.9301 35.4068C86.7089 35.4982 86.5141 35.6642 86.3287 35.8144C86.0167 36.0669 85.7623 36.3849 85.4736 36.661C85.2062 36.9168 84.9495 37.1589 84.6473 37.3725C84.376 37.5643 84.0658 37.6488 83.7527 37.7421C83.4413 37.8348 83.1307 37.9327 82.8283 38.0511C82.4778 38.1882 82.0977 38.3324 81.8019 38.5728C81.5802 38.7529 81.3231 38.9789 81.2528 39.2697C81.1709 39.6088 81.2714 39.9179 81.3818 40.2387C81.5178 40.6338 81.792 41.0032 82.095 41.2867C82.4317 41.6019 82.9332 41.8212 83.3725 41.9454C83.8153 42.0706 84.2447 42.1007 84.7012 42.0452C85.1569 41.9898 85.5964 41.868 86.0599 41.9128C86.4206 41.9476 86.8307 42.1332 87.0962 42.3824C87.382 42.6506 87.5665 42.9997 87.829 43.2881C88.1262 43.6146 88.47 43.8502 88.8546 44.0599C89.4457 44.382 90.25 44.5413 90.8927 44.2953C91.1638 44.1916 91.5032 44.0155 91.6565 43.756C91.7813 43.5448 91.8386 43.2998 91.894 43.0634L91.8979 43.0467C91.9597 42.7826 91.9874 42.5238 91.9693 42.2533C91.9429 41.8598 91.7361 41.4745 91.5413 41.1415C91.4637 41.0088 91.3687 40.8875 91.2953 40.7521C91.2296 40.6306 91.1913 40.5004 91.1384 40.3738C91.0332 40.1222 90.9239 39.876 90.8407 39.6154C90.6583 39.0443 90.8454 38.464 90.9001 37.8858C90.9561 37.2929 90.8195 36.7309 90.3893 36.2999C90.1869 36.097 89.9229 35.9266 89.6749 35.7851Z" fill="white"/>
</svg>
